<svg width="24" height="24" viewBox="0 0 24 24" fill="none" xmlns="http://www.w3.org/2000/svg">
<path d="M12 8.01294C6.615 8.01294 2.25 9.79794 2.25 11.9999C2.25 14.2019 6.615 15.9869 12 15.9869C17.385 15.9869 21.75 14.2019 21.75 11.9999C21.75 9.79794 17.385 8.01294 12 8.01294Z" stroke="#8B8B94" stroke-width="1.5" stroke-linecap="round" stroke-linejoin="round"/>
<path d="M15.4229 10.0059C12.7309 5.3019 9.01588 2.3809 7.12488 3.4819C5.23488 4.5829 5.88488 9.2889 8.57688 13.9939C11.2689 18.6979 14.9849 21.6189 16.8749 20.5179C18.7649 19.4169 18.1149 14.7109 15.4229 10.0059Z" stroke="#8B8B94" stroke-width="1.5" stroke-linecap="round" stroke-linejoin="round"/>
<path d="M15.4229 13.9938C18.1159 9.28883 18.7659 4.58383 16.8749 3.48183C14.9849 2.38183 11.2689 5.30183 8.57688 10.0058C5.88488 14.7098 5.23488 19.4158 7.12488 20.5178C9.01488 21.6178 12.7309 18.6978 15.4229 13.9938Z" stroke="#8B8B94" stroke-width="1.5" stroke-linecap="round" stroke-linejoin="round"/>
<path d="M12 11C12.5523 11 13 11.4477 13 12C13 12.5523 12.5523 13 12 13C11.4477 13 11 12.5523 11 12C11 11.4477 11.4477 11 12 11Z" stroke="#8B8B94"/>
</svg>
